<svg width="118" height="14" viewBox="0 0 118 14" fill="none" xmlns="http://www.w3.org/2000/svg">
<path d="M0.493811 13V1.264H3.13981V6.07H3.21181L6.70381 1.264H9.61981L6.07381 5.944L10.2678 13H7.36981L4.50781 8.05L3.13981 9.85V13H0.493811ZM15.0287 7.06L14.7407 8.14H17.2427L16.9727 7.06C16.8167 6.472 16.6547 5.848 16.4867 5.188C16.3307 4.528 16.1747 3.892 16.0187 3.28H15.9467C15.8027 3.904 15.6527 4.546 15.4967 5.206C15.3527 5.854 15.1967 6.472 15.0287 7.06ZM10.7807 13L14.4527 1.264H17.6387L21.3107 13H18.5027L17.7827 10.21H14.2007L13.4807 13H10.7807ZM25.1926 13V8.824L21.6466 1.264H24.4906L25.5346 3.964C25.7026 4.408 25.8646 4.84 26.0206 5.26C26.1766 5.668 26.3326 6.1 26.4886 6.556H26.5606C26.7286 6.1 26.8966 5.668 27.0646 5.26C27.2326 4.84 27.3946 4.408 27.5506 3.964L28.6126 1.264H31.3846L27.8386 8.824V13H25.1926ZM43.3242 13.216C42.5562 13.216 41.7882 13.072 41.0202 12.784C40.2642 12.496 39.5862 12.076 38.9862 11.524L40.4982 9.706C40.9182 10.066 41.3862 10.36 41.9022 10.588C42.4182 10.816 42.9162 10.93 43.3962 10.93C43.9482 10.93 44.3562 10.828 44.6202 10.624C44.8962 10.42 45.0342 10.144 45.0342 9.796C45.0342 9.424 44.8782 9.154 44.5662 8.986C44.2662 8.806 43.8582 8.608 43.3422 8.392L41.8122 7.744C41.4162 7.576 41.0382 7.354 40.6782 7.078C40.3182 6.79 40.0242 6.436 39.7962 6.016C39.5682 5.596 39.4542 5.104 39.4542 4.54C39.4542 3.892 39.6282 3.304 39.9762 2.776C40.3362 2.248 40.8282 1.828 41.4522 1.516C42.0882 1.204 42.8142 1.048 43.6302 1.048C44.3022 1.048 44.9742 1.18 45.6462 1.444C46.3182 1.708 46.9062 2.092 47.4102 2.596L46.0602 4.27C45.6762 3.97 45.2922 3.742 44.9082 3.586C44.5242 3.418 44.0982 3.334 43.6302 3.334C43.1742 3.334 42.8082 3.43 42.5322 3.622C42.2682 3.802 42.1362 4.06 42.1362 4.396C42.1362 4.756 42.3042 5.026 42.6402 5.206C42.9882 5.386 43.4142 5.578 43.9182 5.782L45.4302 6.394C46.1382 6.682 46.7022 7.078 47.1222 7.582C47.5422 8.086 47.7522 8.752 47.7522 9.58C47.7522 10.228 47.5782 10.828 47.2302 11.38C46.8822 11.932 46.3782 12.376 45.7182 12.712C45.0582 13.048 44.2602 13.216 43.3242 13.216ZM59.6512 13V1.264H62.5492L64.4392 6.484C64.5592 6.82 64.6732 7.174 64.7812 7.546C64.8892 7.918 65.0032 8.284 65.1232 8.644H65.1952C65.3152 8.284 65.4232 7.918 65.5192 7.546C65.6272 7.174 65.7412 6.82 65.8612 6.484L67.7152 1.264H70.5952V13H68.1832V8.698C68.1832 8.314 68.2012 7.888 68.2372 7.42C68.2852 6.94 68.3332 6.46 68.3812 5.98C68.4412 5.5 68.4892 5.074 68.5252 4.702H68.4532L67.4992 7.492L65.8252 11.974H64.3672L62.6932 7.492L61.7572 4.702H61.6852C61.7332 5.074 61.7812 5.5 61.8292 5.98C61.8772 6.46 61.9192 6.94 61.9552 7.42C62.0032 7.888 62.0272 8.314 62.0272 8.698V13H59.6512ZM74.2622 13V1.264H81.6062V3.496H76.9082V5.854H80.9042V8.068H76.9082V10.768H81.7862V13H74.2622ZM85.0235 13V1.264H88.3355C89.5355 1.264 90.5735 1.468 91.4495 1.876C92.3255 2.284 93.0035 2.92 93.4835 3.784C93.9755 4.636 94.2215 5.734 94.2215 7.078C94.2215 8.422 93.9815 9.532 93.5015 10.408C93.0215 11.284 92.3495 11.938 91.4855 12.37C90.6335 12.79 89.6315 13 88.4795 13H85.0235ZM87.6695 10.858H88.1735C88.8455 10.858 89.4275 10.738 89.9195 10.498C90.4235 10.258 90.8135 9.862 91.0895 9.31C91.3655 8.758 91.5035 8.014 91.5035 7.078C91.5035 6.142 91.3655 5.41 91.0895 4.882C90.8135 4.342 90.4235 3.964 89.9195 3.748C89.4275 3.52 88.8455 3.406 88.1735 3.406H87.6695V10.858ZM97.3493 13V1.264H99.9953V13H97.3493ZM106.417 7.06L106.129 8.14H108.631L108.361 7.06C108.205 6.472 108.043 5.848 107.875 5.188C107.719 4.528 107.563 3.892 107.407 3.28H107.335C107.191 3.904 107.041 4.546 106.885 5.206C106.741 5.854 106.585 6.472 106.417 7.06ZM102.169 13L105.841 1.264H109.027L112.699 13H109.891L109.171 10.21H105.589L104.869 13H102.169Z" fill="white"/>
<path d="M33.9138 6.664L33.3378 5.512C33.8778 5.236 34.2798 4.918 34.5438 4.558C34.8198 4.198 34.9578 3.754 34.9578 3.226C34.9218 3.238 34.8678 3.244 34.7958 3.244C34.4118 3.244 34.0818 3.13 33.8058 2.902C33.5418 2.662 33.4098 2.338 33.4098 1.93C33.4098 1.474 33.5358 1.114 33.7878 0.85C34.0518 0.586 34.3878 0.454 34.7958 0.454C35.3478 0.454 35.7678 0.663999 36.0558 1.084C36.3438 1.492 36.4878 2.068 36.4878 2.812C36.4878 4.54 35.6298 5.824 33.9138 6.664ZM116.196 13.216C115.74 13.216 115.356 13.06 115.044 12.748C114.744 12.424 114.594 12.028 114.594 11.56C114.594 11.08 114.744 10.684 115.044 10.372C115.356 10.048 115.74 9.886 116.196 9.886C116.652 9.886 117.03 10.048 117.33 10.372C117.642 10.684 117.798 11.08 117.798 11.56C117.798 12.028 117.642 12.424 117.33 12.748C117.03 13.06 116.652 13.216 116.196 13.216Z" fill="#F16232"/>
</svg>
